<?xml version="1.0" encoding="UTF-8" ?>
<!DOCTYPE svg PUBLIC "-//W3C//DTD SVG 1.1//EN" "http://www.w3.org/Graphics/SVG/1.1/DTD/svg11.dtd">
<svg width="64pt" height="64pt" viewBox="0 0 64 64" version="1.1" xmlns="http://www.w3.org/2000/svg">
<g id="#ffffffff">
</g>
<g id="#000000ff">
<path fill="#000000" opacity="1.00" d=" M 15.69 12.71 C 21.58 10.36 27.26 7.50 33.13 5.11 C 39.78 6.70 45.55 10.78 52.01 13.01 C 53.86 14.02 57.40 15.09 56.85 17.72 C 53.53 21.29 48.52 22.29 44.26 24.31 C 44.51 28.07 45.57 31.90 44.44 35.62 C 43.14 40.90 38.78 45.93 33.00 45.94 C 27.22 45.95 22.85 40.91 21.55 35.63 C 20.40 31.87 21.48 28.00 21.81 24.21 C 19.95 22.58 17.51 21.86 15.19 21.17 C 15.07 21.87 14.82 23.27 14.70 23.96 C 13.54 24.10 12.38 24.14 11.22 24.07 C 10.97 21.43 10.63 18.81 10.27 16.19 C 11.62 14.44 13.73 13.58 15.69 12.71 M 31.33 11.27 C 27.65 13.04 23.76 14.36 20.18 16.34 C 19.64 18.73 23.18 18.93 24.82 19.64 C 27.30 18.04 29.69 15.68 32.90 16.04 C 36.41 15.85 39.00 18.46 41.92 19.91 C 43.59 18.99 47.20 18.81 46.83 16.34 C 42.79 14.21 38.50 12.62 34.36 10.73 C 33.33 10.17 32.28 10.95 31.33 11.27 Z" />
<path fill="#000000" opacity="1.00" d=" M 11.43 26.34 C 14.27 25.03 17.71 27.71 16.88 30.81 C 16.58 34.26 11.35 35.05 9.65 32.29 C 8.47 30.32 9.01 27.06 11.43 26.34 Z" />
<path fill="#000000" opacity="1.00" d=" M 10.74 51.77 C 12.65 48.69 16.07 46.19 19.81 46.24 C 23.93 48.64 27.78 52.40 32.96 51.96 C 38.15 52.35 42.05 48.67 46.19 46.22 C 50.41 46.25 54.26 49.30 55.94 53.08 C 57.32 56.54 56.94 60.36 57.09 64.00 L 8.91 64.00 C 9.10 59.91 8.52 55.44 10.74 51.77 Z" />
</g>
</svg>
