<?xml version="1.0" encoding="UTF-8" ?>
<!DOCTYPE svg PUBLIC "-//W3C//DTD SVG 1.1//EN" "http://www.w3.org/Graphics/SVG/1.1/DTD/svg11.dtd">
<svg width="64pt" height="64pt" viewBox="0 0 64 64" version="1.1" xmlns="http://www.w3.org/2000/svg">
<g id="#000000ff">
<path fill="#000000" opacity="1.00" d=" M 0.00 0.00 L 56.00 0.00 C 55.99 21.33 56.01 42.67 56.00 64.00 L 0.00 64.00 L 0.00 0.00 M 27.30 37.29 C 23.06 38.30 21.62 44.29 24.77 47.23 C 27.71 50.38 33.69 48.93 34.70 44.69 C 36.23 40.39 31.61 35.78 27.30 37.29 M 25.98 51.84 C 25.98 54.86 26.01 57.88 26.11 60.89 C 27.07 60.10 28.03 59.30 29.00 58.52 C 29.97 59.30 30.93 60.09 31.88 60.89 C 31.99 57.87 32.02 54.86 32.02 51.84 C 30.01 51.84 27.99 51.84 25.98 51.84 Z" />
</g>
<g id="#ffffffff">
</g>
</svg>
