<?xml version="1.0" encoding="UTF-8" ?>
<!DOCTYPE svg PUBLIC "-//W3C//DTD SVG 1.1//EN" "http://www.w3.org/Graphics/SVG/1.1/DTD/svg11.dtd">
<svg width="64pt" height="64pt" viewBox="0 0 64 64" version="1.1" xmlns="http://www.w3.org/2000/svg">
<g id="#ffffffff">
</g>
<g id="#000000ff">
<path fill="#000000" opacity="1.00" d=" M 2.00 13.00 C 22.00 13.00 42.00 13.00 62.00 13.00 C 62.00 29.00 62.00 45.00 62.00 61.00 C 52.00 61.00 42.00 61.00 32.00 61.00 C 32.00 61.75 32.00 63.25 32.00 64.00 L 0.00 64.00 L 0.00 59.75 C 0.91 57.64 2.11 55.49 2.05 53.13 C 1.94 39.75 2.03 26.37 2.00 13.00 M 3.00 14.00 C 2.98 27.52 3.03 41.04 2.97 54.56 C 4.39 53.86 5.86 53.24 7.41 52.90 C 9.70 55.19 12.65 57.09 16.01 57.01 C 19.35 57.08 22.28 55.18 24.56 52.91 C 28.36 53.33 31.35 56.27 32.07 59.98 C 41.72 60.02 51.36 59.99 61.00 60.00 C 61.00 44.67 61.00 29.33 61.00 14.00 C 41.67 14.00 22.33 14.00 3.00 14.00 Z" />
<path fill="#000000" opacity="1.00" d=" M 14.24 33.23 C 19.91 31.70 24.28 37.87 24.00 43.00 C 24.28 48.18 19.79 54.42 14.09 52.71 C 5.91 49.84 5.98 35.94 14.24 33.23 Z" />
</g>
</svg>
