<?xml version="1.0" encoding="UTF-8" ?>
<!DOCTYPE svg PUBLIC "-//W3C//DTD SVG 1.1//EN" "http://www.w3.org/Graphics/SVG/1.1/DTD/svg11.dtd">
<svg width="76pt" height="76pt" viewBox="0 0 76 76" version="1.1" xmlns="http://www.w3.org/2000/svg">
<g id="#ffffffff">
</g>
<g id="#000000ff">
<path fill="#000000" opacity="1.00" d=" M 2.00 3.00 C 25.33 3.00 48.67 3.00 72.00 3.00 C 72.00 15.67 72.00 28.33 72.00 41.00 C 48.67 41.00 25.33 41.00 2.00 41.00 C 2.00 28.33 2.00 15.67 2.00 3.00 M 3.00 4.00 C 3.00 16.00 3.00 28.00 3.00 40.00 C 25.67 40.00 48.33 40.00 71.00 40.00 C 71.00 28.00 71.00 16.00 71.00 4.00 C 48.33 4.00 25.67 4.00 3.00 4.00 Z" />
<path fill="#000000" opacity="1.00" d=" M 7.36 60.43 C 9.89 58.90 12.71 61.48 12.93 64.03 C 13.56 66.84 11.32 70.75 8.08 69.88 C 4.25 68.52 3.94 62.43 7.36 60.43 Z" />
<path fill="#000000" opacity="1.00" d=" M 25.33 60.44 C 27.84 58.90 30.67 61.43 30.92 63.97 C 31.59 66.80 29.35 70.75 26.07 69.89 C 22.26 68.51 21.94 62.46 25.33 60.44 Z" />
<path fill="#000000" opacity="1.00" d=" M 47.36 60.42 C 49.85 58.92 52.65 61.42 52.91 63.93 C 53.60 66.76 51.36 70.75 48.07 69.88 C 44.25 68.51 43.94 62.43 47.36 60.42 Z" />
<path fill="#000000" opacity="1.00" d=" M 65.37 60.42 C 67.90 58.92 70.69 61.47 70.93 64.00 C 71.57 66.82 69.34 70.74 66.08 69.89 C 62.24 68.52 61.94 62.42 65.37 60.42 Z" />
<path fill="#000000" opacity="1.00" d=" M 0.79 76.00 C 0.78 73.44 1.62 71.04 3.98 69.78 C 5.81 70.77 7.70 72.49 9.94 71.88 C 11.31 71.35 12.58 70.60 13.94 70.03 C 16.69 70.70 17.08 73.63 17.18 76.00 L 0.79 76.00 Z" />
<path fill="#000000" opacity="1.00" d=" M 18.79 76.00 C 18.77 73.44 19.61 71.05 21.98 69.78 C 23.57 70.66 25.08 71.94 26.98 72.03 C 28.78 71.84 30.27 70.68 31.91 70.02 C 34.68 70.68 35.08 73.63 35.18 76.00 L 18.79 76.00 Z" />
<path fill="#000000" opacity="1.00" d=" M 40.79 76.00 C 40.78 73.44 41.62 71.05 43.98 69.78 C 45.58 70.66 47.09 71.96 49.01 72.03 C 50.90 71.97 52.37 70.65 53.95 69.78 C 56.36 71.01 57.25 73.40 57.18 76.00 L 40.79 76.00 Z" />
<path fill="#000000" opacity="1.00" d=" M 58.79 76.00 C 58.77 73.43 59.62 71.03 62.00 69.78 C 63.99 70.94 66.33 72.89 68.74 71.56 C 70.24 71.08 71.84 69.20 73.31 70.74 C 75.15 71.83 74.84 74.20 75.18 76.00 L 58.79 76.00 Z" />
</g>
</svg>
